<svg id="b" data-name="Calque 4" xmlns="http://www.w3.org/2000/svg" width="159.287" height="159.287" viewBox="0 0 159.287 159.287">
  <g>
    <g>
      <path d="M109.039,96.458c-3.97,3.52-13.75,5.12-16.58,4.08-.64-.24-1.19-.89-1.58-1.82-.08-.19-.16-.38-.22-.57-1.19-3.64-.41-10.42,4.71-14.43,1.42-1.11,4.79-5.23,5.41-9.07.24-1.5.07-2.96-.8-4.18-.51-.71-1.01-1.4-1.51-2.08-2.71-3.71-5.16-7.01-5.94-10.76-.07-.33-.08-.66-.05-.98,5.89.38,14.03,2.56,15.72,4.65.2.25.4.58.58.98,1.16,2.46,1.93,7.52,2.28,13.02.58,9.09-.02,19.39-2.02,21.16Z" fill="#fff" stroke="#fff" stroke-miterlimit="10"></path>
      <path d="M86.111,99.962c.22-1.37.267-3.814-.383-8.164-.91-6.12,8.49-10.78,9.1-17.35.01-.11.02-.23.01-.34.12-2.3-.82-4.22-2.01-6.03l-.01-.01c-2.11-3.22-5-6.13-4.26-10.29.06-.36.14-.72.22-1.07,2.22-9.69,10.42-16.38,10.79-11.85.35,4.39-6.75,7.8-7.09,11.79-.03.32-.02.65.05.98.78,3.75,3.23,7.05,5.94,10.76.5.68,1,1.37,1.51,2.08.87,1.22,1.04,2.68.8,4.18-.62,3.84-3.99,7.96-5.41,9.07-5.12,4.01-4.589,11.36-3.399,15" fill="none" stroke="#fff" stroke-miterlimit="10"></path>
      <path d="M103.779,35.718c-4.82,3.42-13.45,10.48-18.2,12.66-15.82,7.26-7.64-8.79-32.1-9.07-18.96-.22-27.21,14.42-27.52,26.73-.25,10.19,6.88,27.17,29.05,26.9,25.83-.3,30.42-25.24,31.18-34.7.07-.85,1.06-1.33,2.59-1.53-.08.35-.16.71-.22,1.07-.74,4.16,2.15,7.07,4.26,10.29l.01.01c1.19,1.81,2.13,3.73,2.01,6.03.01.11,0,.23-.01.34-.61,6.57-10.01,11.23-9.1,17.35.65,4.35,1.63,7.14,1.41,8.51,0,.01-.01.02-.01.03-.02.07-.03.14-.05.2-.02.05-.04.11-.06.16v.01c-.14.32-.41.51-.83.57-4.36.68-54.19-.23-58.66-.64-.25-.02-.49-.14-.71-.32-.03-.03-.06-.06-.1-.1-.54-.52-.97-1.5-1.26-2.61,0-.02,0-.04-.01-.06-.02-.07-.03-.13-.04-.19,0-.02-.01-.05-.02-.07-.35-1.53-.42-3.28-.15-4.5.54-2.51,2.43-3.89,2.01-8.47-.01-.23-.04-.47-.07-.71-.67-5.15-3.19-5.67-3.26-11.35-.07-5.16.7-17.15-4.13-23.56-3.33-4.41-5.79-4.07-6.13-2-.65,3.86,3.55,3.21,5.73,9.63,1.79,5.28.89,9.73,1.27,15.08.3,4.18.91,5.73,1.57,8.35.27,1.04.55,2.25.82,3.87.52,3.12-.66,5.42-1.78,7.76-.62,1.28-1.21,2.57-1.51,4.01-.48,2.33,1.52,5.28.51,5.4h-.01c-.02,0-.07,0-.15-.01,0,0-.06-.01-.17-.02-.11-.02-.22-.06-.35-.11-3.15-1.23-5.38-5.16-5.35-8.53.01-1.41.41-2.72,1.31-3.7,1.79-1.96,3.24-3.4,3.39-6.46.16-3.06-3-8.17-2.4-10.62.57-2.35,2.12-4.57.01-4.5-2.87.1-4.04,3.18-3.88,4.7.51,5.12,2.73,6.24,2.71,10.06-.02,2.58-2.41,4.09-3.77,7.83-.42,1.14-.53,2.21-.59,3.13-.13,1.65-.11,2.8-1.41,2.92-.44.04-.85-.17-1.22-.61-.11-.14-.21-.28-.32-.43-.01-.01-.01-.02-.02-.03-4.61-7.43-3.13-51.31,1.87-57.48,3.92-4.84,37.57-.06,46.84-2.62,3.97-1.09,2.32-5.4,6.77-6.72,4.16-1.23,14.33-1.68,16.85.76,2.53,2.44,1.3,5.2,3.98,5.98,4.78,1.41,21.2.12,19.42,1.38Z" fill="#fff" stroke="#fff" stroke-miterlimit="10"></path>
    </g>
    <path d="M117.319,101.258c-6.82-1.12.86-17.55-.52-20.5-1.58-3.38-2.94-3.69-3.23-5.56-.03-.18-.05-.38-.06-.6-.07-1.87,1.11-3.48.94-6.31-.11-1.92-1.28-4.95-1.8-7.26-.11-.52-.2-1-.23-1.42-.14-1.86,0-3.37.18-4.71.27-1.99.62-3.62.3-5.55-.29-1.7-.91-3.05-1.53-4.39-.64-1.39-1.26-2.77-1.49-4.55-.53-4.25.09-6.77-.72-8.58-2.82-6.33-10.36-6.33-10.67-8.28-.7-4.29,8.31-2.74,16.52,7.71,2.39,3.04-3.9,8.37-1.26,11.35.78.89,1.39,2.03,1.85,3.34.81,2.34,1.11,5.18.99,7.93-.02.87-.1,1.74-.22,2.58-.22,1.61-.24,2.83-.08,3.87.32,2.17,1.37,3.61,2.75,6.27,1.38,2.67-.97,3.27.42,7.91.48,1.6,1.41,3.69,3.1,6.51,1.56,2.61-3.18,2.69-3.35,10.06-.19,8.32,1.5,10.73-1.89,10.18Z" fill="none" stroke="#fff" stroke-miterlimit="10"></path>
    <path d="M123.949,54.188c.23,1,.46.58-3.67-1.84-1.21.62-2.45,1.13-3.69,1.53.12-2.75-.18-5.59-.99-7.93,1.74.6,3.37,1.38,4.72,2.16,1.46.84,2.72-3.49,3.9-2.51.44.36-1.35,3.89-.27,8.59Z" fill="#fff" stroke="#fff" stroke-miterlimit="10"></path>
    <path d="M54.989,47.469c-11.651,0-21.096,9.445-21.096,21.096s9.445,21.096,21.096,21.096,21.096-9.445,21.096-21.096-9.445-21.096-21.096-21.096ZM54.195,55.329c0-1.266,1.027-2.293,2.293-2.293s2.293,1.027,2.293,2.293-1.027,2.293-2.293,2.293-2.293-1.027-2.293-2.293ZM64.161,67.711c-3.419,0-6.191-2.772-6.191-6.191s2.772-6.191,6.191-6.191,6.191,2.772,6.191,6.191-2.772,6.191-6.191,6.191Z" fill="#fff" stroke="#fff" stroke-miterlimit="10"></path>
    <path d="M112.899,49.348c-.29-1.7-.91-3.05-1.53-4.39-4.55-.52-9.09.93-11.3,7.05-.88,2.44,5.29,4.18,12.53,2.89.27-1.99.62-3.62.3-5.55ZM104.642,51.038c-.756,0-1.368-.613-1.368-1.368s.613-1.368,1.368-1.368,1.368.613,1.368,1.368-.613,1.368-1.368,1.368Z" fill="#fff" stroke="#fff" stroke-miterlimit="10"></path>
    <path d="M133.353,95.135c.081-3.544-1.737-5.821-1.473-6.151.702-.879,2.26,2.054,3.181,1.231,3.661-3.272,10.877-7.22,15.174-.218,1.345,2.191-6.723,5.386-14.513,3.268-2.613,2.355-2.386,2.624-2.369,1.87Z" fill="none" stroke="#fff" stroke-miterlimit="10"></path>
    <path d="M113.509,74.598c.01.22.03.42.06.6-.82.05-1.66.09-2.51.1-.35-5.5-1.12-10.56-2.28-13.02,1.27-.49,2.57-.91,3.87-1.25.52,2.31,1.69,5.34,1.8,7.26.17,2.83-1.01,4.44-.94,6.31Z" fill="#fff" stroke="#fff" stroke-miterlimit="10"></path>
    <path d="M130.219,67.428c-2.11-6.22-7.78-7.85-13.93-7.1.32,2.17,1.37,3.61,2.75,6.27,1.38,2.67-.97,3.27.42,7.91,7.29-1.33,11.75-4.15,10.76-7.08ZM125.463,68.431c-1.129.247-2.244-.468-2.491-1.596-.247-1.129.468-2.244,1.596-2.491,1.129-.247,2.244.468,2.491,1.596.247,1.129-.468,2.244-1.596,2.491Z" fill="#fff" stroke="#fff" stroke-miterlimit="10"></path>
    <path d="M133.629,77.948c-.34.29-.66.6-.96.94" fill="#fff" stroke="#fff" stroke-miterlimit="10"></path>
    <path d="M142.329,69.318c-.16.82-.47,1.54-.88,2.18-1.7,2.7-5.23,4.16-7.82,6.45,1.2-1.23,3.18-3.44,4.1-5.52.7-1.57.2-4.16-.47-6.34.33-1.25.61-2.31.86-3.26.1-.39.02-.04.1-.39,1.22.4,2.61.94,3.78,1.1.45,2.64.67,4.06.33,5.78Z" fill="#fff" stroke="#fff" stroke-miterlimit="10"></path>
    <path d="M132.639,78.918l-.01.01c-.7.77-1.28,1.66-1.65,2.7-2.05,5.73-.899,17.171-1.604,19.275-.413,1.233-4.376,1.763-5.046,1.015-1.166-1.302-2.87-9.01-.53-14.63,1.79-4.32,2.71-3.52,4.09-6.39.64-1.35,1.06-4.3,2.17-5.61,2.11-2.49,5.28-1.19,6.62-6.81.21-.87.4-1.66.58-2.39" fill="none" stroke="#fff" stroke-miterlimit="10"></path>
    <path d="M138.779,55.848c-.01-.1-.02-.21-.04-.32-.97-6-4.7-9.98-1.76-12.96,2.94-2.98,7.43-1.88,11.02-2.98,2.89-.88,2.4-8.47,3.89-8.25,2.33.34,3.36,8.37-.16,10.77-2.9,1.99-10.43,1.69-11.96,4.78-.66,1.34-.05,4.66.76,8.45" fill="#fff" stroke="#fff" stroke-miterlimit="10"></path>
    <path d="M25.459,97.608c.29,1.11.72,2.09,1.26,2.61-.9-.78-4.08-3.43-2.55-8.44.2-.66,1.37-3.18,1.45-5.16.14-3.68-.44-5.13-.94-4.16-.66,1.29.17,3.55-3.41,8.93,1.12-2.34,2.3-4.64,1.78-7.76-.27-1.62-.55-2.83-.82-3.87-.66-2.62-1.27-4.17-1.57-8.35-.38-5.35.52-9.8-1.27-15.08-2.18-6.42-6.38-5.77-5.73-9.63.34-2.07,2.8-2.41,6.13,2,4.83,6.41,4.06,18.4,4.13,23.56.07,5.68,2.59,6.2,3.26,11.35.03.24.06.48.07.71.42,4.58-1.47,5.96-2.01,8.47-.27,1.22-.2,2.97.15,4.5.01.02.02.05.02.07.01.06.02.12.04.19.01.02.01.04.01.06Z" fill="none"></path>
    <path d="M19.939,100.768c-1.14-.11-7.67-.91-11.55-5.89.37.44.78.65,1.22.61,1.3-.12,1.28-1.27,1.41-2.92.06-.92.17-1.99.59-3.13,1.36-3.74,3.75-5.25,3.77-7.83.02-3.82-2.2-4.94-2.71-10.06-.16-1.52,1.01-4.6,3.88-4.7,2.11-.07.56,2.15-.01,4.5-.6,2.45,2.56,7.56,2.4,10.62-.15,3.06-1.6,4.5-3.39,6.46-.9.98-1.3,2.29-1.31,3.7-.03,3.37,2.2,7.3,5.35,8.53.13.05.24.09.35.11Z" fill="none"></path>
    <path d="M150.319,60.268c-1.86-5.16-5.98-5.81-9.79-4.93-.59.13-1.18.31-1.75.51-1.24.43-2.39.99-3.36,1.55-1.07.62-2-2.57-2.86-1.85-.33.27.99,2.87.19,6.32-.17.73-.34.43,2.7-1.35.96.49,1.95.89,2.94,1.2,1.22.4,2.44.66,3.61.82,4.93.66,8.93-.58,8.32-2.27Z" fill="none" stroke="#fff" stroke-miterlimit="10"></path>
    <path d="M153.84,76.081c-.668-.552-1.38,1.906-2.204,1.431-3.278-1.888-9.344-3.725-11.478,2.236-.667,1.865,5.921,2.998,11.462.169,2.343,1.363,2.214,1.601,2.082,1.035-.621-2.66.389-4.664.138-4.872ZM142.611,80.178c-.645,0-1.168-.523-1.168-1.168s.523-1.168,1.168-1.168,1.168.523,1.168,1.168-.523,1.168-1.168,1.168Z" fill="#fff" stroke="#fff" stroke-miterlimit="10"></path>
    <circle cx="146.996" cy="89.391" r="1.168" fill="#fff"></circle>
    <circle cx="146.996" cy="58.864" r="1.168" fill="#fff"></circle>
  </g>
  <rect x="5.914" y="106.249" width="4.672" height="24.76" fill="#fff" stroke="#fff" stroke-miterlimit="10"></rect>
  <polygon points="21.764 106.249 12.898 116.41 12.898 119.429 21.994 131.008 28.299 131.008 17.35 117.852 27.191 106.249 21.764 106.249" fill="#fff" stroke="#fff" stroke-miterlimit="10"></polygon>
  <path d="M53.079,116.602c-.229-6.612-5.656-10.956-12.02-10.93-9.82.041-11.984,7.911-12.137,12.344-.153,4.433,2.755,12.937,11.813,12.992,8.81.053,12.638-5.924,12.344-14.406ZM40.72,127.225c-2.943,0-6.841-2.369-6.955-9.096-.115-6.726,5.072-8.394,7.529-8.025,1.529.229,6.955.535,6.955,8.14s-4.586,8.981-7.529,8.981Z" fill="#fff" stroke="#fff" stroke-miterlimit="10"></path>
  <polygon points="78.248 131.008 82.605 131.008 82.605 114.652 89.025 131.008 92.885 131.008 99.229 114.461 99.229 131.008 103.433 131.008 103.433 106.282 98.885 106.282 91.022 124.492 83.216 106.282 78.439 106.282 78.248 131.008" fill="#fff" stroke="#fff" stroke-miterlimit="10"></polygon>
  <path d="M131.629,116.744c-.229-6.612-5.656-10.956-12.02-10.93-9.82.041-11.984,7.911-12.137,12.344-.153,4.433,2.755,12.937,11.813,12.992,8.81.053,12.638-5.924,12.344-14.406ZM119.27,127.366c-2.943,0-6.841-2.369-6.955-9.096-.115-6.726,5.072-8.394,7.529-8.025,1.529.229,6.955.535,6.955,8.14s-4.586,8.981-7.529,8.981Z" fill="#fff" stroke="#fff" stroke-miterlimit="10"></path>
  <path d="M74.087,107.475c-3.655-1.78-17.704-3.856-18.268,6.115-.65,11.503,14.538,3.896,14.35,9.74-.172,5.364-11.911,3.004-13.28,2.604.008,1.855-.013,3.703,0,4.242,2.154.57,17.609,4.507,17.694-6.557.091-11.847-14.407-3.723-14.254-9.685.155-6.037,11.805-2.846,13.502-2.371.153-1.834.256-4.087.256-4.087Z" fill="#fff" stroke="#fff" stroke-miterlimit="10"></path>
  <path d="M152.403,107.475c-3.655-1.78-17.704-3.856-18.268,6.115-.65,11.503,14.538,3.896,14.35,9.74-.172,5.364-11.911,3.004-13.28,2.604.008,1.855-.013,3.703,0,4.242,2.154.57,17.609,4.507,17.694-6.557.091-11.847-14.407-3.723-14.254-9.685.155-6.037,11.805-2.846,13.502-2.371.153-1.834.256-4.087.256-4.087Z" fill="#fff" stroke="#fff" stroke-miterlimit="10"></path>
</svg>